<svg xmlns="http://www.w3.org/2000/svg" viewBox="0 0 517.69 161.48"><defs><style>.cls-1{fill:#fff;}</style></defs><title>Asset 1</title><g id="Layer_2" data-name="Layer 2"><g id="Layer_1-2" data-name="Layer 1"><g id="Layer_2-2" data-name="Layer 2"><g id="Layer_1-2-2" data-name="Layer 1-2"><path class="cls-1" d="M220.77,12V.45H298.1V12c-3,0-6.05-.09-9.13,0-7.46.25-10.52,3.11-11.32,10.53a52.16,52.16,0,0,0-.22,6V133c0,1.84,0,3.68.17,5.5.71,7.78,3.66,10.7,11.4,10.94,6.49.21,13,.36,19.49.13,7.12-.26,10.13-3.33,10.88-10.46.17-2.16.24-4.33.2-6.49V.14c6.71,0,13-.23,19.24.17,1.52.1,3.21,2.07,4.31,3.55q42.7,57.65,85.27,115.37c5.84,7.91,12,15.6,17.4,23.8,3.28,5,7.39,6.85,12.95,6.69,2.32-.07,4.65,0,7.38,0v11.41c-1.75.08-3.52.22-5.29.23-13.16,0-26.33-.17-39.49.11-3.88.09-6-1.36-8.06-4.36q-36.37-51.72-73-103.27c-.85-1.21-1.78-2.37-3.45-4.58-.19,2.4-.38,3.71-.38,5v80c0,12.46,3,15.4,15.25,15.46h5.59V161H162.56V149.54c4.06,0,7.53.23,11,0,5.95-.49,8.64-3.06,9.77-8.85a19.36,19.36,0,0,0,.34-3.48V51.73a12.11,12.11,0,0,0-.49-2.08c-1.36,1.75-2.49,3.08-3.49,4.49q-36.52,51.6-73,103.27c-2,2.9-4.1,4.09-7.7,4.07-31.16-.15-62.32-.08-93.48-.08H.12c-.13-8.71-1-16.35,5-24.15,30.12-39,59.53-78.64,89.18-118,1.08-1.43,2.08-2.91,3.53-4.94-2-.17-3.41-.38-4.81-.38H37c-12.52,0-17.47,4.34-19.27,16.78-.62,4.28-.72,8.65-1.52,12.9a4.73,4.73,0,0,1-3.24,3c-4.1.37-8.26.14-12.74.14V.37H145.58L35.64,149.18c11,0,21.11.22,31.17-.19,2-.08,4.49-2.18,5.86-4Q124.77,74.7,176.6,4.25c2.19-3,4.32-4.51,8.15-4.21,5,.38,10,.09,15.82.09V132c0,1.83,0,3.67.07,5.5.49,8.72,3.74,12,12.44,12.12,6.15.09,12.32,0,18.47-.32,5.75-.29,8.47-2.75,9.52-8.38a44.7,44.7,0,0,0,.52-8V28.44c0-1.5,0-3-.09-4.5-.57-8.86-3.7-11.88-12.48-12C226.41,11.94,223.78,12,220.77,12Z"/><path class="cls-1" d="M500.91,111V27.69a46.76,46.76,0,0,0-.36-6.48c-.86-6-3.92-8.8-10-9.17-3.32-.21-6.65,0-10.39,0V.53h37.53V161.31c-6.72,0-13,.24-19.28-.17-1.51-.1-3.15-2.15-4.26-3.65q-51-68.91-101.77-138c-4.15-5.68-8.68-8.33-15.46-7.66-1.79.18-3.62,0-5.79,0V.39C372.82.3,374.42.14,376,.14c13.33,0,26.67.16,40-.12,3.86-.08,5.94,1.3,8.07,4.32Q460.3,55.85,496.76,107.2c1,1.34,2,2.65,2.93,4Z"/></g></g></g></g></svg>